<svg xmlns="http://www.w3.org/2000/svg"><defs><style>.cls-ham{fill:none}</style><style>.cls-1{fill:#f9a56b}.cls-2{fill:none;stroke:#333}</style><style>.cls-1{fill:#161541}.cls-2{fill:none;stroke:#fff}</style><style>.cls-1{fill:#f9a56b}.cls-2{fill:none;stroke:#333}</style><style>.cls-1{fill:#141441}.cls-2{fill:none;stroke:#fff}</style></defs><symbol id="equity-bottom-hover" viewBox="0 0 139.6 19.2"><path d="M5.5 1.7l-.4 5.1 2.7-4.3 1.4.5-4.1 6.3-1.3-.4.3-5L1.3 8 0 7.6.5 0 2 .5l-.5 5.1 2.8-4.3 1.2.4zm12.1 3.6l-2 7.1-1.5-.4.8-3-3.2-.9-.8 3-1.5-.4 2-7.1 1.5.4-.8 2.8 3.2.9.8-2.8 1.5.4zM24.8 7l1.6.4-3.6 3.9-.7 2.7-1.5-.3.6-2.7-1.6-5 1.6.4 1.1 3.4L24.8 7zm12.8 2.5l-.2 1.3-3.4-.6-.3 1.6 3.1.5-.2 1.3-3.1-.5-.3 1.7 3.4.6-.2 1.3-4.9-.8 1.2-7.3 4.9.9zm6.3 8c-.5.2-1 .2-1.5.2-2-.2-3.3-2-3-4.2.3-2.2 1.9-3.6 3.9-3.4 2 .2 3.3 2 3 4.2-.1 1.1-.6 2-1.3 2.6l.5.8-1.1.6-.5-.8zm-.8-6c-1.2-.1-2 .8-2.2 2.2-.2 1.4.5 2.5 1.6 2.7h.6l-.5-.8 1.1-.6.5.8c.3-.4.5-.9.5-1.5.2-1.6-.4-2.7-1.6-2.8zm5.6 3.8l.4-4.4 1.5.1-.3 4.2c-.1 1.3.4 1.9 1.4 2s1.6-.5 1.7-1.7l.3-4.2 1.5.1-.4 4.4c-.2 2-1.5 3-3.3 2.8-1.8-.1-2.9-1.3-2.8-3.3zM59.2 19h-1.6l.3-7.4 1.5.1-.2 7.3zm2.8-7.2l6.3.1v1.3h-2.4l-.1 6h-1.5l.1-6H62v-1.4zm13.5 0h1.6l-2.6 4.6.1 2.8h-1.5l-.1-2.8-2.7-4.5H72l1.8 3.1 1.7-3.2zm12 5.1l-2.4-3 .5 4.7-1.5.1-.7-7.3 1.4-.1 2.6 3.3 1.9-3.7 1.4-.1.7 7.3-1.5.1-.5-4.7-1.9 3.4zm9.7-6.9l3.8 6.9-1.5.2-.9-1.7-2.7.4-.4 1.8-1.5.2 1.8-7.7 1.4-.1zm-1.1 4.5l1.8-.2-1.2-2.3-.6 2.5zm5.1-5.1l6.2-1.1.2 1.3-2.3.4 1 5.9-1.5.3-1-5.9-2.3.4-.3-1.3zm8.1-1.4l6.1-1.4.3 1.3-2.3.5 1.3 5.9-1.5.3-1.3-5.9-2.3.5-.3-1.2zm13.4-3.2l.3 1.3-3.3.9.4 1.6 3.1-.8.3 1.3-3.1.8.4 1.7 3.4-.9.3 1.3-4.8 1.3-1.9-7.1 4.9-1.4zm5.4 3.3l.8 2.6-1.5.4-2.1-7 2.9-.9c1.5-.5 2.7 0 3.1 1.5.3 1.1-.1 2-1 2.6l2.7 2.2-1.7.5-2.5-2.1-.7.2zm-.4-1.2l1.4-.4c.7-.2 1-.7.8-1.3-.2-.6-.7-.9-1.4-.6l-1.4.4.6 1.9zm6.9-.1c.8.2 1.7.3 2.5 0 .7-.2 1.2-.6 1-1.2-.2-.5-.5-.5-1.1-.5h-1.1c-1.1 0-2-.3-2.4-1.4-.4-1.3.4-2.4 1.8-2.8.9-.3 1.6-.3 2.3-.2L138 2c-.8-.2-1.5-.3-2.3 0-.6.2-1 .6-.9 1.1.1.4.5.5 1 .5h1.2c1.3 0 2.1.4 2.4 1.5.5 1.4-.5 2.5-1.9 3-.9.3-1.8.3-2.4.2l-.5-1.5z"/></symbol><symbol id="equity-bottom-line" viewBox="0 0 147.3 14"><style>.em{fill:none}</style><path class="em" d="M.2.8c16.6 6 43.3 13.2 76.6 12.7 30.2-.5 54.5-7.2 70.4-13"/></symbol><symbol id="equity-bottom" viewBox="0 0 45.2 8.9"><path d="M5.7.5l-.2 1.4-3.4-.4-.2 1.6 3.2.3L5 4.7l-3.2-.3-.2 1.8 3.5.3L5 7.9l-5-.5L.7.1l5 .4zm6.8 7.6c-.5.2-1 .3-1.5.3-2-.1-3.4-1.8-3.3-4C7.8 2.2 9.3.7 11.3.8c2 .1 3.4 1.7 3.3 4 0 1.1-.5 2-1.1 2.7l.6.7-1 .7-.6-.8zm-1.2-5.9c-1.2-.1-2 .9-2 2.3-.1 1.4.6 2.5 1.8 2.6.2 0 .4 0 .6-.1l-.6-.8 1-.7.5.7c.2-.4.4-.9.4-1.6.2-1.4-.6-2.4-1.7-2.4zm5.9 3.4V1.2h1.5v4.2c0 1.3.5 1.9 1.5 1.9s1.5-.6 1.5-1.8V1.3h1.5v4.4c0 2-1.2 3.1-3.1 3.1-1.7-.1-2.9-1.2-2.9-3.2zm10.7 2.9h-1.5l-.1-7.4h1.5l.1 7.4zm2.3-7.4l6.3-.4.1 1.3-2.4.1.3 6-1.5.2-.3-6-2.4.1-.1-1.3zM43.6.2l1.6-.2L43 4.8l.3 2.8-1.5.1-.3-2.8L38.4.6 40 .5l2.1 2.9L43.6.2z"/></symbol><symbol id="equity-top-hover" viewBox="0 0 146.2 19.4"><path d="M5 11.3l2.8 4.3-.5-5.1 1.4-.5.6 7.6-1.3.5-2.8-4.2.4 5-1.3.5L0 13.1l1.5-.5 2.8 4.3-.4-5.1 1.1-.5zm12.8-3.9l2 7.1-1.5.4-.8-3-3.2.9.8 3-1.5.4-2-7.1 1.5-.4.8 2.8 3.2-.9-.8-2.8 1.5-.4zm7.8-1.9l1.6-.4-1.5 5.1.6 2.7-1.5.4-.6-2.7-3.6-3.8 1.6-.4L24.7 9l.9-3.5zm13.7-2.7l.2 1.3-3.4.6.3 1.6 3.1-.5.2 1.2-3.1.5.3 1.7 3.4-.6.2 1.3-4.9.8-1.2-7.3 4.9-.6zm8.7 6c-.4.3-.9.5-1.4.5-2 .2-3.6-1.2-3.9-3.4-.3-2.2 1-3.9 3-4.2 2-.2 3.7 1.2 3.9 3.4.1 1.1-.1 2.1-.7 2.8l.7.6-.9.9-.7-.6zm-2.2-5.7c-1.2.1-1.8 1.2-1.6 2.6.2 1.4 1 2.4 2.2 2.2.2 0 .4-.1.6-.2l-.7-.7.9-.9.7.6c.2-.4.2-1 .2-1.6-.3-1.2-1.1-2.1-2.3-2zm6.6 2.4L52 1.1l1.6-.1.3 4.2c.1 1.3.7 1.8 1.7 1.7 1-.1 1.5-.7 1.4-2L56.7.7l1.5-.1.3 4.4c.2 2-1 3.2-2.8 3.3-1.8.2-3.1-.8-3.3-2.8zm10.9 2.2l-1.5.1-.3-7.4L63 .3l.3 7.4zM65.9.2l6.3-.1v1.3h-2.4l.1 6h-1.5l-.1-6h-2.4V.2zM80 .2l1.6.1-2.8 4.5-.1 2.8h-1.5l.1-2.8L74.8 0l1.7.1 1.7 3.2L80 .2zm12 6.5l-1.8-3.4-.5 4.7-1.5-.1.7-7.3 1.4.1 1.9 3.7 2.5-3.3 1.4.1-.7 7.3-1.4-.1.4-4.7-2.4 3zm11.3-4.6l1.8 7.7-1.5-.2-.4-1.8-2.7-.4-.9 1.7-1.5-.2 3.8-6.9 1.4.1zm-2.2 4.1l1.8.2-.6-2.5-1.2 2.3zm6.8-3.4l6.2 1.1-.2 1.3-2.3-.4-1.1 5.9-1.5-.3 1.1-5.9-2.3-.4.1-1.3zm8.8 1.6l6.1 1.4-.3 1.3-2.3-.5-1.3 5.9-1.5-.3 1.3-5.9-2.3-.5.3-1.4zm13.9 3.4l-.3 1.3-3.4-.9-.4 1.6 3.1.8-.3 1.3-3.1-.8-.4 1.7 3.4.9-.3 1.3-4.8-1.3 1.9-7.1 4.6 1.2zm3.2 5.8l-.8 2.6-1.5-.5 2.2-7 2.9.9c1.5.5 2.2 1.6 1.7 3-.4 1.1-1.2 1.6-2.3 1.6l1 3.3-1.6-.5-.9-3.2-.7-.2zm.4-1.2l1.3.4c.7.2 1.2 0 1.4-.6.2-.6-.1-1.1-.8-1.3l-1.3-.4-.6 1.9zm5.9 3.9c.5.7 1.1 1.3 1.9 1.6.7.3 1.3.2 1.5-.3.2-.5-.1-.7-.5-1.1l-.9-.7c-.9-.7-1.4-1.5-1-2.6.5-1.3 1.8-1.6 3.2-1.1.8.3 1.5.8 1.9 1.3l-.5 1.4c-.4-.7-1-1.2-1.8-1.5-.6-.2-1.2-.2-1.3.3-.2.4.1.7.5 1l1 .8c1 .8 1.3 1.6 1 2.7-.5 1.4-1.9 1.6-3.4 1.1-.9-.3-1.6-.9-2-1.4l.4-1.5z"/></symbol><symbol id="equity-top-line" viewBox="0 0 137.1 13.3"><style>.el{fill:none}</style><path id="line" class="el" d="M.2 12.9C15.1 7.3 39.4.3 70.1.5c29.1.2 52.3 6.9 66.9 12.4"/></symbol><symbol id="equity-top" viewBox="0 0 47.3 8.6"><path d="M5 .8l.1 1.3-3.5.4.2 1.6L5 3.8l.1 1.3-3.2.3.2 1.7 3.5-.3.1 1.3-5 .5L0 1.3l5-.5zm8.2 6.6c-.4.3-.9.4-1.5.4-2 .1-3.6-1.4-3.7-3.6C7.9 2 9.2.3 11.3.2c2-.1 3.6 1.4 3.7 3.6.1 1.1-.3 2-.8 2.8l.6.7-.9.8-.7-.7zm-1.8-5.8c-1.2.1-1.9 1.1-1.8 2.5s.9 2.4 2.1 2.4c.2 0 .4 0 .6-.1l-.6-.7.9-.8.6.7c.2-.4.3-.9.3-1.6-.2-1.5-1-2.5-2.1-2.4zm6.4 2.8V0h1.5v4.2c0 1.3.6 1.9 1.5 1.8 1 0 1.5-.6 1.5-1.9V-.1h1.5v4.4c0 2-1.2 3.1-3 3.1-1.7.1-2.9-.9-3-3zm10.8 3h-1.5l.2-7.4h1.5l-.2 7.4zM31.7.1l6.3.4-.1 1.3-2.4-.1-.3 6-1.5-.1.3-6-2.4-.1.1-1.4zm14 1.1l1.6.2-3.1 4.3-.3 2.8-1.5-.1.3-2.8L40.5.8l1.7.2 1.5 3.3 2-3.1z"/></symbol><symbol id="icon-arrow-dark-small" viewBox="0 0 5 10"><style>.st0{fill:#161440}</style><path class="st0" d="M.8 10L0 9.4 3.7 5 0 .6.8 0 5 5z"/></symbol><symbol id="icon-arrow-dark" viewBox="0 0 9 18"><style>.st0{fill:#161440}</style><path class="st0" d="M.7 18l-.7-.7L7.6 9 0 .7.7 0 9 9z"/></symbol><symbol id="icon-arrow-down-small" viewBox="0 0 12 6"><path d="M6 6L0 .8.7 0 6 4.7 11.3 0l.7.8z"/></symbol><symbol id="icon-arrow-dropdown-down" viewBox="0 0 12 9"><title>Page 1</title><path d="M6 9l6-9H.001z" fill-rule="evenodd"/></symbol><symbol id="icon-arrow-small" viewBox="0 0 5 10"><path d="M.8 10L0 9.4 3.7 5 0 .6.8 0 5 5 .8 10z"/></symbol><symbol id="icon-arrow-up" viewBox="0 0 10 6"><path d="M8.9 6L5 2.4 1.1 6l-.7-.7L5 1l4.6 4.3zM0 0h10v1H0z"/></symbol><symbol id="icon-arrow-white-small" viewBox="0 0 5 10"><style>.st0{fill:#fff}</style><path class="st0" d="M.8 10L0 9.4 3.7 5 0 .6.8 0 5 5z"/></symbol><symbol id="icon-arrow-white" viewBox="0 0 9 18"><style>.st0{fill:#fff}</style><path class="st0" d="M.7 18l-.7-.7L7.6 9 0 .7.7 0 9 9z"/></symbol><symbol id="icon-arrow" viewBox="0 0 9 18"><path d="M.7 18l-.7-.7L7.6 9 0 .7.7 0 9 9 .7 18z"/></symbol><symbol id="icon-double-arrow" viewBox="0 0 11 10"><path d="M.8 10L0 9.4 3.7 5 0 .6.8 0 5 5zm6 0L6 9.4 9.7 5 6 .6l.8-.6L11 5z"/></symbol><symbol id="icon-download" viewBox="0 0 12 12"><path d="M11 6h1v6H0V0h6v1H1v10h10V6zM4.8 3.2h-1v5h5v-1H5.5L12 .7l-.7-.7-6.5 6.5V3.2z"/></symbol><symbol id="icon-external-link" viewBox="0 0 12 12"><path d="M12 12H0V0h4.2v1H1v10h10V7.8h1V12zm0-12H7v1h4v4h1V0zm0 .7l-.7-.7-5.6 5.6.7.7L12 .7z"/></symbol><symbol id="icon-graph" viewBox="0 0 30 24"><path d="M26 23V0h-5v23h-3.5V12h-5v11H9V6H4v17H0v1h30v-1z"/></symbol><symbol id="icon-hamburger" viewBox="0 0 10 10"><title>icon-hamburger</title><path class="cls-ham" d="M0 5h10m0 4.5H0m10-9H0"/></symbol><symbol id="icon-pdf" viewBox="0 0 18 27"><path d="M18 18H0V0h9v1H1v16h16V9h1v9zM18 .7l-.7-.7L5.8 11.5l.7.7L18 .7zm-4.9 10.7H6.6V4.9h-1v7.5h7.5v-1zm-1 15.6v-5h3.3v.9h-2.3v1.3h2.1v.9h-2.1V27h-1zm-4.9-5H9c1.5 0 2.5 1 2.5 2.5S10.5 27 9 27H7.2v-5zm1.7 4.1c1 0 1.5-.6 1.5-1.6s-.5-1.6-1.5-1.6h-.7v3.2h.7zm-3.4-2.5c0-.4-.3-.8-.8-.8h-.9v1.5h.9c.5.1.8-.2.8-.7m-1.7 1.7V27h-1v-5h2c1.1 0 1.8.6 1.8 1.6 0 1.1-.7 1.6-1.8 1.6h-1z"/></symbol><symbol id="icon-play" viewBox="0 0 20.6 24"><path d="M0 24V0l20.6 12L0 24zM1 1.7v20.5L18.6 12 1 1.7z"/></symbol><symbol id="icon-prizewinning" viewBox="0 0 36 56"><style>.st0{fill:#141441}</style><path class="st0" d="M22.1 28.3L18 24.2l-4.1 4.1-6.2-6.2 4.1-4.1-4.1-4.1 6.2-6.2 4.1 4.1 4.1-4.1 6.2 6.2-4.1 4.1 4.1 4.1-6.2 6.2zm-3.4-4.8l3.4 3.4 4.8-4.8-3.4-3.4-1.4 1.4-1.4-1.4-2 2 1.4 1.4-1.4 1.4zm-9.6-1.4l4.8 4.8 3.4-3.4-1.4-1.4 1.4-1.4-2-2-1.4 1.4-1.4-1.4-3.4 3.4zm8.2 0l.7.7.7-.7-.7-.7-.7.7zM16 18l2 2 2-2-2-2-2 2zm-2.8 0l.7.7.7-.7-.7-.7-.7.7zm8.2 0l.7.7.7-.7-.7-.7-.7.7zm.7-2.1l1.4 1.4 3.4-3.4-4.8-4.8-3.4 3.4 1.4 1.4-1.4 1.4 2 2 1.4-1.4zm-8.2 0l1.4 1.4 2-2-1.4-1.4 1.4-1.4-3.4-3.4-4.8 4.8 3.4 3.4 1.4-1.4zm3.4-2l.7.7.7-.7-.7-.7-.7.7z"/><path class="st0" d="M18 36C8.1 36 0 27.9 0 18S8.1 0 18 0s18 8.1 18 18-8.1 18-18 18zm0-35C8.6 1 1 8.6 1 18s7.6 17 17 17 17-7.6 17-17S27.4 1 18 1zm10 55l-10-5.8L8 56V36h1v18.3l9-5.2 9 5.2V36h1z"/></symbol><symbol id="icon-refresh" viewBox="0 0 10 12"><path d="M5 12c-2.8 0-5-2.2-5-5h1c0 2.2 1.8 4 4 4s4-1.8 4-4-1.8-4-4-4V2c2.8 0 5 2.2 5 5s-2.2 5-5 5zM5 0L2 2.5 5 5V0z"/></symbol><symbol id="icon-search" viewBox="0 0 18 18"><path d="M17.3 18L13 13.7l.7-.7 4.3 4.3-.7.7zM13.5 6.8c0-3.7-3-6.8-6.8-6.8C3 0 0 3 0 6.8c0 3.7 3 6.8 6.8 6.8 3.7-.1 6.7-3.1 6.7-6.8zm-1 0c0 3.2-2.6 5.8-5.8 5.8S1 9.9 1 6.8 3.6 1 6.8 1s5.7 2.6 5.7 5.8z"/></symbol><symbol id="map-pin-blue-dark" viewBox="0 0 30 30"><path fill="#141441" d="M15 30L0 15 15 0l15 15-15 15"/><path fill="#47b79b" d="M15 20a5 5 0 1 0 0-10 5 5 0 0 0 0 10"/></symbol><symbol id="map-pin-blue" viewBox="0 0 30 30"><path fill="#35AAB2" d="M15 30L0 15 15 0l15 15-15 15"/><path fill="#FFF" d="M15 20a5 5 0 1 0 0-10 5 5 0 0 0 0 10"/></symbol><symbol id="map-pin-gray" viewBox="0 0 30 30"><path fill="#c4c4cf" d="M15 30L0 15 15 0l15 15-15 15"/><path fill="#FFF" d="M15 20a5 5 0 1 0 0-10 5 5 0 0 0 0 10"/></symbol><symbol id="map-pin-green" viewBox="0 0 30 30"><path fill="#82B587" d="M15 30L0 15 15 0l15 15-15 15"/><path fill="#FFF" d="M15 20a5 5 0 1 0 0-10 5 5 0 0 0 0 10"/></symbol><symbol id="map-pin-hover" viewBox="0 0 30 30"><path fill="#F9A56B" d="M15 30L0 15 15 0l15 15-15 15"/><path fill="#161540" d="M15 20a5 5 0 1 0 0-10 5 5 0 0 0 0 10"/></symbol><symbol id="map-pin-orange" viewBox="0 0 30 30"><path fill="#FF7063" d="M15 30L0 15 15 0l15 15-15 15"/><path fill="#FFF" d="M15 20a5 5 0 1 0 0-10 5 5 0 0 0 0 10"/></symbol><symbol id="map-pin-purple-dark" viewBox="0 0 30 30"><path fill="#5F5058" d="M15 30L0 15 15 0l15 15-15 15"/><path fill="#FFF" d="M15 20a5 5 0 1 0 0-10 5 5 0 0 0 0 10"/></symbol><symbol id="map-pin-purple" viewBox="0 0 30 30"><path fill="#8E547A" d="M15 30L0 15 15 0l15 15-15 15"/><path fill="#FFF" d="M15 20a5 5 0 1 0 0-10 5 5 0 0 0 0 10"/></symbol><symbol id="map-pin-teal" viewBox="0 0 30 30"><path fill="#47B79B" d="M15 30L0 15 15 0l15 15-15 15"/><path fill="#FFF" d="M15 20a5 5 0 1 0 0-10 5 5 0 0 0 0 10"/></symbol><symbol id="map-pin" viewBox="0 0 30 30"><path fill="#161541" d="M15 30L0 15 15 0l15 15-15 15"/><path fill="#46B89C" d="M15 20a5 5 0 1 0 0-10 5 5 0 0 0 0 10"/></symbol><symbol id="map-zoom-in-hover" viewBox="0 0 30 30"><title>map-zoom-in-hover</title><path class="cls-1" d="M15 30A15 15 0 1 0 0 15a15 15 0 0 0 15 15"/><path class="cls-2" d="M10 15h10m-5-5v10"/></symbol><symbol id="map-zoom-in" viewBox="0 0 30 30"><title>map-zoom-in</title><path class="cls-1" d="M15 30A15 15 0 1 0 0 15a15 15 0 0 0 15 15"/><path class="cls-2" d="M10 15h10m-5-5v10"/></symbol><symbol id="map-zoom-out-hover" viewBox="0 0 30 30"><title>Artboard 1</title><path class="cls-1" d="M15 30A15 15 0 1 0 0 15a15 15 0 0 0 15 15"/><path class="cls-2" d="M10 15h10"/></symbol><symbol id="map-zoom-out" viewBox="0 0 30 30"><title>Artboard 1</title><path class="cls-1" d="M15 30A15 15 0 1 0 0 15a15 15 0 0 0 15 15"/><path class="cls-2" d="M10 15h10"/></symbol><symbol id="rwjf" viewBox="0 0 147.1 73"><path d="M110.7 38.3c-12 4.3-15.3-.3-15.3-.3s7 1.1 13.4.5l1.9-.2z"/><path d="M90.7 32.5s11.8 3.5 23 5.4c-21.7.9-23-5.4-23-5.4m-3.2-9.8s16.2 10.1 27.9 14.9c-29.8-6.4-27.9-14.9-27.9-14.9"/><path d="M144 24.8s-18.3 9.3-35.2 13.8c35.6-4.5 35.2-13.8 35.2-13.8M146.7 0c-20.8 20.8-29.9 26.8-44.2 40.1C146.8 16.2 146.7 0 146.7 0m-16.3 38.9s-8.5.3-13.1-.7c10.2 3.9 13.1.7 13.1.7"/><path d="M147.1 13.5c-24.9 16.3-32.9 21.4-42.6 26.4 41.7-14.4 42.6-26.4 42.6-26.4m-9.7 20.8s-11.6 2.9-22 3.5c19.4 2.2 22-3.5 22-3.5M0 45.9c.5 0 1 .1 1.5.1.4 0 2.5-.1 2.9-.1.5 0 1.8 0 2.5 1 .3.5.5 1.1.5 1.6 0 .9-.3 1.5-.6 1.9-.5.6-1 .8-1.5 1.1l2.5 3.3c1.1 1.4 1.2 1.6 2.2 1.7v.6c-.3 0-1.5-.1-1.8-.1-.7-.1-.8-.2-1.2-.9l-3-4.3c-.5.2-.7.2-1.2.2v1.9c0 1.5 0 1.8.1 2 .1.6.4.8 1.3.8v.6c-.7-.1-1.5-.1-2.2-.1-.7 0-1.3 0-2 .1v-.6c.6 0 1.1 0 1.2-.4.2-.3.2-.3.2-2.2v-4.4c0-1 0-2.2-.1-2.6-.1-.6-.6-.6-1.3-.6v-.6zm2.8 5.4c.4 0 1.3 0 2.1-.4s1.2-1.2 1.2-2.1c0-1-.5-1.6-.9-1.8-.7-.5-1.6-.4-2.4-.4v4.7zm14.3 2.3c0 2.1-1.5 3.7-3.7 3.7-2.4 0-3.6-1.8-3.6-3.7 0-2.3 1.7-3.7 3.6-3.8 2.5 0 3.7 1.9 3.7 3.8m-6-.3c0 1.4.7 3.4 2.5 3.4 1.4 0 2.2-1.3 2.2-2.8 0-1.3-.7-3.4-2.5-3.3-1.3 0-2.2 1.1-2.2 2.7M17 46c.9-.3 1.1-.4 2-.9l.3.1c-.1.7-.1 1.3-.1 3.2v2.5c.7-.5 1.4-.9 2.4-.9 1.8 0 3 1.5 3 3.4 0 2.2-1.5 3.9-3.8 3.9h-.2c-.4 0-.9-.1-1.3-.2h-.4c-.3 0-.6.1-1 .1v-8.9c0-1.6 0-1.8-.9-1.8V46zm2.2 8.7c0 .3 0 .6.2 1 .4.8 1.2.9 1.6.9 1.6 0 2.4-1.4 2.4-2.8 0-1.9-1.2-2.8-2.5-2.8-.8 0-1.3.3-1.7.5v3.2zm7.4-1.9v.5c0 .6.1 1 .3 1.4.4.9 1.3 1.5 2.3 1.5.9 0 1.4-.4 1.7-.6l.3.4c-.3.3-.5.5-.9.7-.6.3-1.2.5-1.7.5-1.7 0-3.1-1.5-3.1-3.5 0-2.3 1.5-3.8 3.3-3.8 1.3 0 2.3.8 2.3 2 0 .8-.3.8-.8.8h-3.7zm2.9-.6c.2 0 .4-.1.4-.4 0-.5-.3-1.1-1.3-1.1-.9 0-1.6.6-1.9 1.6h2.8zm2.5-1.5c.9-.3 1.1-.4 1.9-.9l.2.1v1.5c.2-.4.8-1.5 2-1.5.1 0 .6 0 .6.4 0 .1-.1 1-.5 1-.1 0-.4-.2-.9-.2-1.1 0-1.2 1-1.2 1.3-.1.6-.1 2.4-.1 3 0 .9 0 1.2 1.1 1.1v.5c-.6 0-1.2-.1-1.8-.1-.6 0-1.1.1-1.6.1v-.5c.7 0 1 0 1.1-.5 0-.2.1-.8.1-1.2v-2.3c-.1-1.4-.1-1.5-.9-1.5v-.3zm5.5-.1c1.1-.8 1.5-1.6 1.7-2.3h.5v2.1h2.2l-.3.7h-1.9l-.1 3.4c0 .7 0 1.1.2 1.4.2.4.7.5 1 .5.3 0 .6-.1.9-.2l.2.5c-.8.3-1.2.5-1.8.5-.3 0-.9 0-1.2-.4-.4-.4-.4-.8-.4-1.8l.1-4h-1l-.1-.4zm8-4.7c.6 0 1.1.1 1.6.1.6 0 1.3 0 2-.1v.6c-.4 0-.8.1-.8.5 0 .1 0 .1.1.2 0 .2.4 1 .5 1.3l2.5 6.3 1.5-3.5-1.6-3.6c-.6-1.1-.6-1.3-1.4-1.3v-.6c.6 0 1.1.1 1.6.1.6 0 1.2 0 1.8-.1v.6c-.3 0-.7 0-.7.5 0 .2.1.4.2.7l.9 2 .8-1.9c.1-.3.3-.6.3-.8 0-.5-.5-.5-.7-.5v-.6c.5 0 1 .1 1.5.1s.9 0 1.4-.1v.6c-.8 0-1.1.2-1.5 1.1L54 50.6l1.9 4.2 2.6-6.3c.3-.8.4-1.1.4-1.4 0-.6-.6-.7-1-.7v-.6c.6 0 1.1.1 1.7.1.6 0 1.1 0 1.7-.1v.6c-.9 0-1.1.3-1.7 1.6l-3.1 7.1c-.4.9-.5 1.3-.8 2.1h-.2l-2.2-5-2.2 5h-.2L47 47.8c-.5-1.1-.7-1.3-1.5-1.4v-.5zm20.9 7.7c0 2.1-1.5 3.7-3.7 3.7-2.4 0-3.6-1.8-3.6-3.7 0-2.3 1.6-3.7 3.6-3.8 2.4 0 3.7 1.9 3.7 3.8m-6-.3c0 1.4.7 3.4 2.5 3.4 1.5 0 2.2-1.3 2.2-2.8 0-1.3-.7-3.4-2.5-3.3-1.3 0-2.2 1.1-2.2 2.7m14.2.3c0 2.1-1.5 3.7-3.7 3.7-2.4 0-3.6-1.8-3.6-3.7 0-2.3 1.6-3.7 3.6-3.8 2.4 0 3.7 1.9 3.7 3.8m-6-.3c0 1.4.7 3.4 2.5 3.4 1.5 0 2.2-1.3 2.2-2.8 0-1.3-.7-3.4-2.5-3.3-1.3 0-2.2 1.1-2.2 2.7m11.2-7.4c.8-.3 1.1-.4 1.9-.9l.3.1c-.1 1-.1 1.2-.1 2.2v7.1c0 1.6 0 1.9.9 1.9v.5c-.6 0-1.2.1-2 .4l-.3-.2c0-.4 0-.5.1-.9-.6.4-1.4 1.1-2.4 1.1-1.6 0-2.8-1.6-2.8-3.5 0-2.1 1.5-3.8 3.5-3.8.9 0 1.5.3 1.7.4v-3.2c0-.6-.1-.8-.9-.8v-.4zm.8 7c0-.9-.1-1.5-.5-1.9-.4-.4-.9-.4-1.3-.4-1.2 0-2.2 1-2.2 2.8 0 1.9 1.1 2.9 2.3 2.9.8 0 1.4-.5 1.8-.8v-2.6zm7.5-7c.8 0 1.3.1 2 .1s1.4 0 2.2-.1v.6c-.4 0-.9 0-1.1.4-.2.1-.2.6-.2 1.7v4.7c0 3.3 0 3.7-.6 4.8-.6 1.1-2.2 2.8-3.5 2.8-.2 0-.9-.1-.9-.3 0-.1 0-.2.3-.6.1-.2.3-.5.5-.5.1 0 .1 0 .2.1.2.1.4.2.8.2s.8-.1 1.1-.6c.6-.8.7-1.7.7-4.6v-7.1c-.1-.7-.4-.8-1.4-.8v-.8zm11.5 7.7c0 2.1-1.5 3.7-3.7 3.7-2.4 0-3.6-1.8-3.6-3.7 0-2.3 1.7-3.7 3.6-3.8 2.5 0 3.7 1.9 3.7 3.8m-6-.3c0 1.4.7 3.4 2.5 3.4 1.4 0 2.2-1.3 2.2-2.8 0-1.3-.7-3.4-2.5-3.3-1.3 0-2.2 1.1-2.2 2.7m6.5-7.3c.8-.3 1-.4 1.9-.9l.3.1c-.1.9-.1 1.1-.1 2.7v3.2c1.4-1 2-1.2 2.5-1.2.6 0 1.2.2 1.6.6.4.5.5 1.1.5 1.9v3.3c0 .7.3.7 1 .8v.5c-.5 0-1.1-.1-1.7-.1-.6 0-1 .1-1.7.1v-.5c.8 0 1 0 1.1-.7 0-.2.1-1.2.1-2.3 0-.6 0-1.4-.1-1.8-.1-.2-.3-1-1.3-1-.6 0-1.2.2-2 .9v3.7c0 1 0 1.1 1.1 1.1v.5c-.6 0-1.1-.1-1.7-.1-.6 0-1.2 0-1.7.1v-.5c.6 0 .8 0 1-.2.1-.2.1-.4.1-1.2v-7.4c0-1.2 0-1.4-.9-1.4V46zm8.2 4.7c.8-.3 1-.4 1.9-.9l.3.1c-.1.5-.1.6-.1 1.2 1.7-1.1 2.1-1.2 2.5-1.2.4 0 .8.1 1.2.3.8.5.9 1.3.9 2.3v3.2c0 .7.2.8 1 .8v.6c-.6-.1-1.1-.1-1.7-.1-.6 0-1.1 0-1.7.1v-.6c1.1 0 1.1-.1 1.1-1.4v-2.5c0-.7 0-1.9-1.4-1.9-.9 0-1.7.6-2 .9v3.9c0 .9.1 1 1.1 1v.6c-.6-.1-1.1-.1-1.7-.1-.6 0-1.2 0-1.7.1v-.6c.6 0 .8 0 .9-.2.1-.1.1-.2.1-1.1v-2.1c0-1.9 0-2.1-1-2.1v-.3zm8.9 4.3c.1.4.2.7.3.9.4.7 1 .7 1.2.7.6 0 1.3-.4 1.3-1.1 0-.6-.3-.8-1.5-1.6-.8-.5-1.5-1-1.5-2.1 0-1.3 1-2 2.1-2 .7 0 1.3.2 1.6.3l.1 1.5-.4.1c-.1-.4-.4-1.3-1.3-1.3-.6 0-1 .4-1 1s.6 1 1.1 1.4c1.2.7 1.9 1.2 1.9 2.3 0 1.4-1.1 2.1-2.3 2.1-.8 0-1.4-.2-1.8-.4l-.2-1.8h.4zm12-1.4c0 2.1-1.5 3.7-3.7 3.7-2.4 0-3.6-1.8-3.6-3.7 0-2.3 1.7-3.7 3.6-3.8 2.5 0 3.7 1.9 3.7 3.8m-6-.3c0 1.4.7 3.4 2.5 3.4 1.4 0 2.2-1.3 2.2-2.8 0-1.3-.7-3.4-2.5-3.3-1.3 0-2.2 1.1-2.2 2.7m6.4-2.6c.8-.3 1-.4 1.9-.9l.3.1v1.2c1.7-1.1 2.1-1.2 2.5-1.2.4 0 .8.1 1.2.3.8.5.9 1.3.9 2.3v3.2c0 .7.2.8 1.1.8v.6c-.6-.1-1.1-.1-1.7-.1-.6 0-1.1 0-1.7.1v-.6c1.1 0 1.1-.1 1.1-1.4v-2.5c0-.7 0-1.9-1.4-1.9-1 0-1.7.6-2 .9v3.9c0 .9.1 1 1.1 1v.6c-.6-.1-1.1-.1-1.7-.1-.6 0-1.1 0-1.7.1v-.6c.6 0 .8 0 .9-.2.1-.1.1-.2.2-1.1v-2.1c0-1.9 0-2.1-.9-2.1v-.3zM6.2 69c0-1.2-.4-1.3-1.6-1.3H2.8V71c0 1.1.1 1.2 1.4 1.3v.6c-.9 0-1.6-.1-2.3-.1-.7 0-1.3 0-1.9.1v-.6c1 0 1.3-.1 1.3-.9v-7.7c0-1.3 0-1.5-1.4-1.5v-.6c1.3 0 2.5.1 3.8.1 1.4 0 2.4 0 3.3-.1l.4 2.4-.6.1c-.2-1.7-1-1.8-3.2-1.8-.6 0-.7 0-.7.1V67h1.7c1.4 0 1.7-.1 1.7-1.3h.6v3.4h-.7zm9 .3c0 2.1-1.5 3.7-3.7 3.7-2.4 0-3.6-1.8-3.6-3.7 0-2.3 1.6-3.7 3.6-3.8 2.4 0 3.7 1.9 3.7 3.8m-6-.3c0 1.4.7 3.4 2.5 3.4 1.4 0 2.2-1.3 2.2-2.8 0-1.3-.7-3.4-2.5-3.3-1.3 0-2.2 1.1-2.2 2.7m6.6-3.3c1 0 1.3 0 2.2-.2v3.1c0 .5 0 1.8.1 2.2.2.9 1 1 1.3 1 .8 0 1.4-.4 1.8-.8.1-1 .1-2.3.1-3.3 0-1.3 0-1.4-1.2-1.4v-.6c1.1 0 1.3 0 2.5-.2-.1 2.1-.1 4.4-.1 5.3 0 .9 0 1.2 1 1.2v.5c-.6 0-.9 0-2.1.4l-.2-.2c.1-.4.1-.5.1-1.1-.2.2-.5.4-.8.6-.5.3-1 .6-1.6.6-.1 0-.8 0-1.3-.5-.7-.6-.7-1.6-.7-2.4v-2.7c0-.8 0-1.1-.9-1.1v-.4zm8.4.7c.8-.3 1-.4 1.9-.9l.3.1c0 .5-.1.6-.1 1.2 1.7-1.2 2.1-1.2 2.5-1.2.4 0 .8.1 1.2.3.8.5.9 1.3.9 2.3v3.2c0 .7.2.7 1 .8v.6c-.5-.1-1.1-.1-1.7-.1-.6 0-1.1 0-1.7.1v-.6c1.1 0 1.1-.1 1.1-1.4v-2.5c0-.7 0-1.9-1.4-1.9-1 0-1.7.6-2 .9v3.9c0 .9.1 1 1.1 1v.6c-.6-.1-1.1-.1-1.7-.1-.6 0-1.1 0-1.7.1v-.6c.6 0 .8 0 .9-.2.1-.1.1-.2.2-1.1v-2.1c0-1.9 0-2.1-1-2.1v-.3zm12.5-4.8c.8-.3 1-.4 1.9-.9l.3.1c-.1 1-.1 1.2-.1 2.2v7.1c0 1.6 0 1.9.9 1.9v.5c-.6 0-1.2.1-2 .4l-.3-.3c0-.3 0-.5.1-.9-.6.4-1.4 1.1-2.4 1.1-1.6 0-2.8-1.6-2.8-3.5 0-2.2 1.5-3.8 3.5-3.8.9 0 1.5.3 1.7.4v-3.2c0-.6-.1-.8-.9-.8v-.3zm.9 6.9c0-.9-.1-1.4-.5-1.9-.4-.3-.9-.4-1.3-.4-1.2 0-2.2 1-2.2 2.8 0 1.9 1.1 2.9 2.3 2.9.8 0 1.4-.5 1.8-.8v-2.6zm6.4.4V68c0-.5 0-1.6-1-1.6-.4 0-.6.1-.8.2-.6.3-.6.5-.6.8 0 .1 0 .2-.1.2-.1.2-.7.3-.8.3-.2 0-.2-.1-.2-.2 0 0 0-.5.5-.9.6-.4 1.3-.9 2.1-1.3h.2c.5 0 .9.1 1.3.4.5.4.6 1 .6 2 0 .4-.1 2.4-.1 2.8 0 .7 0 1.3.5 1.3.2 0 .4-.1.6-.3l.2.3c-.5.5-1.1.7-1.5.7-.8 0-.8-.7-.9-1.1-.2.3-1 1.1-2.1 1.1-.9 0-1.6-.6-1.6-1.6s.6-1.2 1.7-1.7l2-.5zm0 .5c-1.8.7-2.4.9-2.4 1.7 0 .5.3 1 .9 1 .4 0 .9-.3 1.4-.8v-1.9zm2.6-3.1c1.2-.8 1.5-1.6 1.7-2.3h.5v2.1H51l-.3.7h-1.9l-.1 3.4c0 .7 0 1.1.2 1.5.3.4.7.5 1 .5.3 0 .6-.1.9-.2l.2.5c-.8.3-1.2.5-1.8.5-.3 0-.8 0-1.2-.4-.4-.4-.4-.8-.4-1.8l.1-3.9h-1l-.1-.6zm5.4.1c.8-.3 1-.4 1.9-.9l.3.1c-.1.6-.1.8-.1 1.4v4.2c0 1 0 1 1 1.1v.5c-.6 0-1.1-.1-1.7-.1-.6 0-1.1 0-1.7.1v-.5c1.1-.1 1.1-.1 1.1-1.2v-3.2c0-.7-.1-1.1-.9-1.1v-.4zm.5-4.4c0-.4.4-.8.8-.8s.8.4.8.8c0 .5-.4.8-.8.8-.2 0-.4-.1-.5-.2-.2-.2-.3-.4-.3-.6m10.4 7.3c0 2.1-1.5 3.7-3.7 3.7-2.4 0-3.6-1.8-3.6-3.7 0-2.3 1.7-3.7 3.6-3.8 2.4 0 3.7 1.9 3.7 3.8m-6-.3c0 1.4.7 3.4 2.5 3.4 1.4 0 2.2-1.3 2.2-2.8 0-1.3-.7-3.4-2.5-3.3-1.3 0-2.2 1.1-2.2 2.7m6.4-2.6c.8-.3 1-.4 1.9-.9l.3.1c0 .5-.1.6-.1 1.2 1.7-1.2 2.1-1.2 2.5-1.2.4 0 .8.1 1.2.3.8.5.9 1.3.9 2.3v3.2c0 .7.2.7 1 .8v.6c-.6-.1-1.1-.1-1.7-.1-.6 0-1.1 0-1.7.1v-.6c1.1 0 1.1-.1 1.1-1.4v-2.5c0-.7 0-1.9-1.4-1.9-1 0-1.7.6-2 .9v3.9c0 .9.1 1 1.1 1v.6c-.6-.1-1.1-.1-1.7-.1-.6 0-1.1 0-1.7.1v-.6c.6 0 .8 0 .9-.2.1-.1.1-.2.2-1.1v-2.1c0-1.9 0-2.1-1-2.1v-.3z"/></symbol></svg>