<svg xmlns="http://www.w3.org/2000/svg" viewBox="0 0 104.3 45"><path d="M6.9 2.9h1l2 6.4h-5l2-6.4zM5.3.3L0 16.3h2.7l1.5-4.6h6.6l1.5 4.6h2.8L9.8.3H5.3zm26-.3h2.6v2.4h-2.6z"/><path d="M26.7 4.9v-1c0-1 .4-1.8 1.7-1.8h1.3V0h-1.3c-2.6 0-4.2 1.1-4.2 3.8v1.1h-4.6v-1c0-1 .4-1.8 1.7-1.8h1.3V0h-1.3C18.7 0 17 1.1 17 3.8v1.1h-1.8V7H17v9.2h2.5V7h4.6v9.2h2.5V7h4.6v9.2h2.5V4.9h-7zM36.8 0h2.5v16.3h-2.5zm5.5 0h2.6v2.4h-2.6zm0 4.9h2.5v11.4h-2.5zm12.5 6.8v-.9h-2.9c-1.6 0-2.4.7-2.4 1.9s.9 1.8 2.3 1.8c1.7 0 3-1.2 3-2.8m.1 3.5h-.5c-.7.9-1.8 1.3-3.4 1.3-2.6 0-4.1-1.8-4.1-3.7 0-1.8 1.2-3.8 4.5-3.8h3.4v-.3c0-1.3-.7-2.1-2.4-2.1-1.5 0-2.2.6-2.3 1.5h-2.5c.1-2.2 2-3.5 4.7-3.5 3 0 4.9 1.3 4.9 4.1v7.6h-2.4v-1.1zM65.8 4.9V7h-2.7v5.6c0 1 .5 1.5 1.7 1.5h.9v2.2h-1c-2.5 0-4.2-.8-4.2-3.4V7h-1.8V4.9h1.8V1.6H63v3.3h2.8zm4.3 4h5.7c-.2-1.3-1.1-2.3-2.7-2.3-1.8 0-2.7 1-3 2.3m8.3 1.9H70c.1 2.3 1.1 3.6 3.2 3.6 1.4 0 2.2-.5 2.5-1.5h2.6c-.4 2.1-2.1 3.6-5.1 3.6-3.6 0-5.7-2.5-5.7-6.1 0-3.6 2.1-5.9 5.6-5.9 3.4 0 5.2 2.4 5.3 5.4v.9zm10.4-.2c0-2-.9-3.8-3.2-3.8-2.1 0-3.1 1.6-3.1 3.8 0 2.2 1 3.9 3.1 3.9 2.2-.1 3.2-1.9 3.2-3.9M88.2 6h.5V0h2.5v16.3h-2.4v-1.1h-.5c-.6.8-1.7 1.4-3.4 1.4-3.1 0-4.9-2.6-4.9-6s1.9-6 4.9-6c1.7 0 2.7.6 3.3 1.4M13.3 37.8v2.5H1.5v-16H13v2.4H4.2v4.2h7v2.4h-7v4.5zm10.1 2.5v-6.6c0-1.9-.9-2.8-2.5-2.8-1.8 0-3 1.5-3 3.3v6.1h-2.5V28.9h2.4V30h.5c.6-.9 1.8-1.4 3.3-1.4 2.8 0 4.3 1.7 4.3 4.6v7.1h-2.5zm13.5-5.9c0-2-1.1-3.7-3.2-3.7-2 0-3.1 1.5-3.1 3.7 0 2.1 1.1 3.6 3.1 3.6 2.1 0 3.2-1.7 3.2-3.6m2.4-5.5v10.8c0 3.2-2.2 5.2-5.5 5.2-3 0-5.1-1.3-5.3-3.7H31c.2 1.1 1.2 1.6 2.8 1.6 2.1 0 3-1.3 3-3.3v-.8h-.5c-.5.8-1.5 1.4-3.2 1.4-3.1 0-5-2.5-5-5.8s1.9-5.8 5-5.8c1.7 0 2.8.7 3.3 1.4h.5v-1.1h2.4zm3-4.9h2.6v2.4h-2.6zm0 4.9h2.5v11.4h-2.5zm13.5 11.4v-6.6c0-1.9-.9-2.8-2.5-2.8-1.8 0-3 1.5-3 3.3v6.1h-2.5V28.9h2.4V30h.5c.6-.9 1.8-1.4 3.3-1.4 2.8 0 4.3 1.7 4.3 4.6v7.1h-2.5zm7.3-7.4h5.7c-.2-1.3-1.1-2.3-2.7-2.3-1.8 0-2.7 1-3 2.3m8.3 1.9H63c.1 2.3 1.1 3.6 3.2 3.6 1.4 0 2.2-.5 2.5-1.5h2.6c-.4 2.1-2.1 3.6-5.1 3.6-3.6 0-5.7-2.5-5.7-6.1 0-3.6 2.1-5.9 5.6-5.9 3.4 0 5.2 2.4 5.3 5.4v.9zm4.2-1.9h5.7c-.2-1.3-1.1-2.3-2.7-2.3-1.8 0-2.7 1-3 2.3m8.3 1.9h-8.4c.1 2.3 1.1 3.6 3.2 3.6 1.4 0 2.2-.5 2.5-1.5h2.6c-.4 2.1-2.1 3.6-5.1 3.6-3.6 0-5.7-2.5-5.7-6.1 0-3.6 2.1-5.9 5.6-5.9 3.4 0 5.2 2.4 5.3 5.4v.9zm9.3-3.6h-1c-2.3 0-3.6 1.3-3.6 3.7v5.3h-2.5V28.9h2.4v1.3h.5c.5-.6 1.4-1.3 3.2-1.3h1v2.3zm8.2.7c-.2-1-1.1-1.2-2.2-1.2-1.2 0-2.1.4-2.1 1.2 0 .7.5 1 1.5 1.1l2.2.4c2.1.3 3.5 1.4 3.5 3.5 0 1.9-1.7 3.7-4.9 3.7-3.3 0-5-1.5-5.2-3.7h2.5c.2 1.2 1.1 1.6 2.6 1.6s2.4-.4 2.4-1.5c0-.9-.5-1.3-1.9-1.5l-2.4-.4c-1.7-.3-2.9-1.2-2.9-3 0-1.9 1.5-3.5 4.7-3.5 2.8 0 4.4 1.3 4.7 3.3h-2.5zM6.9 2.9h1l2 6.4h-5l2-6.4zM5.3.3L0 16.3h2.7l1.5-4.6h6.6l1.5 4.6h2.8L9.8.3H5.3z"/><path d="M31.3 0h2.6v2.4h-2.6z"/><path d="M26.7 4.9v-1c0-1 .4-1.8 1.7-1.8h1.3V0h-1.3c-2.6 0-4.2 1.1-4.2 3.8v1.1h-4.6v-1c0-1 .4-1.8 1.7-1.8h1.3V0h-1.3C18.7 0 17 1.1 17 3.8v1.1h-1.8V7H17v9.2h2.5V7h4.6v9.2h2.5V7h4.6v9.2h2.5V4.9h-7zM36.8 0h2.5v16.3h-2.5zm5.5 0h2.6v2.4h-2.6zm0 4.9h2.5v11.4h-2.5zm12.5 6.8v-.9h-2.9c-1.6 0-2.4.7-2.4 1.9s.9 1.8 2.3 1.8c1.7 0 3-1.2 3-2.8m.1 3.5h-.5c-.7.9-1.8 1.3-3.4 1.3-2.6 0-4.1-1.8-4.1-3.7 0-1.8 1.2-3.8 4.5-3.8h3.4v-.3c0-1.3-.7-2.1-2.4-2.1-1.5 0-2.2.6-2.3 1.5h-2.5c.1-2.2 2-3.5 4.7-3.5 3 0 4.9 1.3 4.9 4.1v7.6h-2.4v-1.1zM65.8 4.9V7h-2.7v5.6c0 1 .5 1.5 1.7 1.5h.9v2.2h-1c-2.5 0-4.2-.8-4.2-3.4V7h-1.8V4.9h1.8V1.6H63v3.3h2.8zm4.3 4h5.7c-.2-1.3-1.1-2.3-2.7-2.3-1.8 0-2.7 1-3 2.3m8.3 1.9H70c.1 2.3 1.1 3.6 3.2 3.6 1.4 0 2.2-.5 2.5-1.5h2.6c-.4 2.1-2.1 3.6-5.1 3.6-3.6 0-5.7-2.5-5.7-6.1 0-3.6 2.1-5.9 5.6-5.9 3.4 0 5.2 2.4 5.3 5.4v.9zm10.4-.2c0-2-.9-3.8-3.2-3.8-2.1 0-3.1 1.6-3.1 3.8 0 2.2 1 3.9 3.1 3.9 2.2-.1 3.2-1.9 3.2-3.9M88.2 6h.5V0h2.5v16.3h-2.4v-1.1h-.5c-.6.8-1.7 1.4-3.4 1.4-3.1 0-4.9-2.6-4.9-6s1.9-6 4.9-6c1.7 0 2.7.6 3.3 1.4M13.3 37.8v2.5H1.5v-16H13v2.4H4.2v4.2h7v2.4h-7v4.5zm10.1 2.5v-6.6c0-1.9-.9-2.8-2.5-2.8-1.8 0-3 1.5-3 3.3v6.1h-2.5V28.9h2.4V30h.5c.6-.9 1.8-1.4 3.3-1.4 2.8 0 4.3 1.7 4.3 4.6v7.1h-2.5zm13.5-5.9c0-2-1.1-3.7-3.2-3.7-2 0-3.1 1.5-3.1 3.7 0 2.1 1.1 3.6 3.1 3.6 2.1 0 3.2-1.7 3.2-3.6m2.4-5.5v10.8c0 3.2-2.2 5.2-5.5 5.2-3 0-5.1-1.3-5.3-3.7H31c.2 1.1 1.2 1.6 2.8 1.6 2.1 0 3-1.3 3-3.3v-.8h-.5c-.5.8-1.5 1.4-3.2 1.4-3.1 0-5-2.5-5-5.8s1.9-5.8 5-5.8c1.7 0 2.8.7 3.3 1.4h.5v-1.1h2.4zm3-4.9h2.6v2.4h-2.6zm0 4.9h2.5v11.4h-2.5zm13.5 11.4v-6.6c0-1.9-.9-2.8-2.5-2.8-1.8 0-3 1.5-3 3.3v6.1h-2.5V28.9h2.4V30h.5c.6-.9 1.8-1.4 3.3-1.4 2.8 0 4.3 1.7 4.3 4.6v7.1h-2.5zm7.3-7.4h5.7c-.2-1.3-1.1-2.3-2.7-2.3-1.8 0-2.7 1-3 2.3m8.3 1.9H63c.1 2.3 1.1 3.6 3.2 3.6 1.4 0 2.2-.5 2.5-1.5h2.6c-.4 2.1-2.1 3.6-5.1 3.6-3.6 0-5.7-2.5-5.7-6.1 0-3.6 2.1-5.9 5.6-5.9 3.4 0 5.2 2.4 5.3 5.4v.9zm4.2-1.9h5.7c-.2-1.3-1.1-2.3-2.7-2.3-1.8 0-2.7 1-3 2.3m8.3 1.9h-8.4c.1 2.3 1.1 3.6 3.2 3.6 1.4 0 2.2-.5 2.5-1.5h2.6c-.4 2.1-2.1 3.6-5.1 3.6-3.6 0-5.7-2.5-5.7-6.1 0-3.6 2.1-5.9 5.6-5.9 3.4 0 5.2 2.4 5.3 5.4v.9zm9.3-3.6h-1c-2.3 0-3.6 1.3-3.6 3.7v5.3h-2.5V28.9h2.4v1.3h.5c.5-.6 1.4-1.3 3.2-1.3h1v2.3zm8.2.7c-.2-1-1.1-1.2-2.2-1.2-1.2 0-2.1.4-2.1 1.2 0 .7.5 1 1.5 1.1l2.2.4c2.1.3 3.5 1.4 3.5 3.5 0 1.9-1.7 3.7-4.9 3.7-3.3 0-5-1.5-5.2-3.7h2.5c.2 1.2 1.1 1.6 2.6 1.6s2.4-.4 2.4-1.5c0-.9-.5-1.3-1.9-1.5l-2.4-.4c-1.7-.3-2.9-1.2-2.9-3 0-1.9 1.5-3.5 4.7-3.5 2.8 0 4.4 1.3 4.7 3.3h-2.5z"/></svg>