<svg xmlns="http://www.w3.org/2000/svg" viewBox="0 0 12 12"><path d="M6 0H3.5C2.9 0 2.4.1 2 .3c-.3.2-.7.4-1 .7-.3.3-.5.7-.7 1.1-.1.4-.2.8-.3 1.4v5c0 .6.1 1.1.3 1.5.2.3.4.7.7 1 .3.3.7.5 1.1.7.4.1.8.2 1.5.3h5c.6 0 1.1-.1 1.5-.3.4-.2.7-.4 1.1-.7.3-.3.5-.7.7-1.1.1-.4.2-.8.3-1.5v-5c0-.6-.1-1.1-.3-1.5-.4-.2-.6-.6-.9-.9-.3-.3-.7-.5-1.1-.7C9.5.2 9.1.1 8.5 0H6m0 1.1h2.4c.6 0 .9.1 1.1.2.3.1.5.2.7.4.2.2.3.4.4.7.1.2.2.5.2 1.1v4.8c0 .6-.1.9-.2 1.1-.1.3-.2.5-.4.7-.2.2-.4.3-.7.4-.2.1-.5.2-1.1.2H3.6c-.6 0-.9-.1-1.1-.2-.3-.1-.5-.2-.7-.4-.2-.1-.4-.3-.5-.6-.1-.2-.2-.5-.2-1.1V3.6c0-.6.1-.9.2-1.1.1-.3.3-.5.5-.7.2-.2.4-.4.7-.5.2-.1.5-.2 1.1-.2H6"/><path d="M6 8c-1.1 0-2-.9-2-2s.9-2 2-2 2 .9 2 2-.9 2-2 2m0-5.1C4.3 2.9 2.9 4.3 2.9 6S4.3 9.1 6 9.1 9.1 7.7 9.1 6 7.7 2.9 6 2.9m3.9-.1c0 .4-.3.7-.7.7-.4 0-.7-.3-.7-.7 0-.4.3-.7.7-.7.4 0 .7.3.7.7"/></svg>